<?xml version="1.0" encoding="UTF-8" standalone="no"?><svg xmlns:svg="http://www.w3.org/2000/svg" xmlns="http://www.w3.org/2000/svg" version="1.1" style="overflow:visible" viewBox="-150 -150 300 300" height="300px" width="300px"><rect fill-opacity="0" fill="rgb(0,0,0)" height="300" width="300" y="-150" x="-150" /><svg version="1.1" y="-250" x="-250" viewBox="-250 -250 500 500" height="500px" width="500px" style="overflow:visible"><g transform="rotate(20,0,0)" stroke-linejoin="round" fill="#fff"><path stroke-linecap="round" stroke-linejoin="round" stroke-width="12" stroke-opacity="1" stroke="rgb(136,136,136)" fill="none" d="m-6.79027 109.93667c-0.17092 0.68468-24.99151-14.08484-33.9745-45.32802c-9.50215-33.04885 5.15518-53.34545 33.24852-55.51954c22.05123-1.7065 49.75805 4.52056 55.01288 16.11998c5.23981 11.56628-15.91165 23.09596-44.45652 19.3331c-29.84422-3.93415-56.83513-16.662401-61.5105-44.58036c-5.20054-31.05387 16.29313-60.95934 56.24423-66.519941c42.07825-5.85666 77.25492 2.93642 78.29396 22.71347c1.1249 21.41164-27.38265 28.68641-62.84623 27.91452c-31.33566-0.68205-81.58898-5.13032-88.61467-38.25983c-4.63165-21.84053 11.09151-47.65994 68.25174-53.85498c53.0735-5.75212 76.33267 3.01684 76.33267 3.01684" /></g></svg></svg>